<?xml version="1.0" encoding="UTF-8"?>
<svg viewBox="0 0 15 12" version="1.1" xmlns="http://www.w3.org/2000/svg" xmlns:xlink="http://www.w3.org/1999/xlink">
    <title>Combined Shape</title>
    <g id="Page-1" stroke="none" stroke-width="1" fill="none" fill-rule="evenodd">
        <g id="Artboard" transform="translate(-299.000000, -293.000000)" fill="#FFFFFF" fill-rule="nonzero">
            <path d="M308.75317,293.102097 L308.818342,293.162086 L313.870888,298.710614 C314.022299,298.876889 314.040725,299.119625 313.925183,299.301195 L313.875573,299.366148 L308.901821,304.843067 C308.722166,305.040897 308.414007,305.05337 308.213527,304.870926 C308.035323,304.708755 308.002184,304.447163 308.123198,304.252091 L308.175821,304.182382 L312.495,299.426 L312.470369,299.428748 L299.500469,299.428748 C299.224067,299.428748 299,299.20489 299,298.928748 C299,298.683288 299.177041,298.47914 299.410509,298.436804 L299.500469,298.428748 L312.306,298.428 L308.101712,293.812469 C307.939489,293.634321 307.931322,293.37112 308.070496,293.188692 L308.12958,293.124392 C308.305484,292.96475 308.568678,292.960346 308.75317,293.102097 Z" id="Combined-Shape" transform="translate(306.500000, 299.000000) rotate(-180.000000) translate(-306.500000, -299.000000) "></path>
        </g>
    </g>
</svg>