<?xml version="1.0" encoding="UTF-8"?>
<svg width="367px" height="363px" viewBox="0 0 367 363" version="1.1" xmlns="http://www.w3.org/2000/svg" xmlns:xlink="http://www.w3.org/1999/xlink">
    <title>Group 6</title>
    <g id="Page-1" stroke="none" stroke-width="1" fill="none" fill-rule="evenodd">
        <g id="Group-6">
            <rect id="Rectangle" fill-opacity="0" fill="#D8D8D8" x="0" y="0" width="367" height="363"></rect>
            <g id="Group-5" transform="translate(56.000000, 111.000000)" fill="#FFFFFF" fill-rule="nonzero">
                <path d="M37.5833333,4 L37.5833333,44.0176991 L85.4166667,44.0176991 L85.4166667,4 L123,4 L123,123 L85.4166667,123 L85.4166667,82.9823009 L37.5833333,82.9823009 L37.5833333,123 L0,123 L0,4 L37.5833333,4 Z" id="Combined-Shape"></path>
                <path d="M192.258296,0 C227.194799,0 255.516593,28.4923159 255.516593,63.6391674 C255.516593,77.5591746 251.060046,90.4185291 243.523874,100.894597 L243.523874,100.894597 L257,116.572106 L228.730922,141 L213.674393,123.499229 C206.981665,125.922821 199.779708,127.278335 192.258296,127.278335 C157.321794,127.278335 129,98.7860189 129,63.6391674 C129,28.4923159 157.321794,0 192.258296,0 Z M192.258296,38.6894318 C177.701508,38.6894318 165.900673,50.5687431 165.900673,65.222722 C165.900673,79.876701 177.701508,91.7560122 192.258296,91.7560122 C206.815085,91.7560122 218.61592,79.876701 218.61592,65.222722 C218.61592,50.5687431 206.815085,38.6894318 192.258296,38.6894318 Z" id="Combined-Shape"></path>
            </g>
        </g>
    </g>
</svg>