<?xml version="1.0" encoding="UTF-8"?>
<svg viewBox="0 0 33 35" version="1.1" xmlns="http://www.w3.org/2000/svg" xmlns:xlink="http://www.w3.org/1999/xlink">
    <title>Path</title>
    <g id="Page-1" stroke="none" stroke-width="1" fill="none" fill-rule="evenodd">
        <g id="Artboard" transform="translate(-235.000000, -143.000000)" fill="#FFFFFF" fill-rule="nonzero">
            <path d="M255.285826,145.07905 L263.571652,151.817995 C266.373472,154.096742 268,157.516179 268,161.127671 L268,176 C268,177.104569 267.104569,178 266,178 L256,178 L256,168.5 C256,166.085727 254.098763,164.115511 251.711836,164.004898 L251.5,164 C249.085727,164 247.115511,165.901237 247.004898,168.288164 L247,168.5 L247,178 L237,178 C235.895431,178 235,177.104569 235,176 L235,161.127671 C235,157.516179 236.626528,154.096742 239.428348,151.817995 L247.714174,145.07905 C249.91942,143.285501 253.08058,143.285501 255.285826,145.07905 Z M254.654855,145.854856 C252.880519,144.411771 250.363579,144.36201 248.538029,145.705572 L248.345145,145.854856 L240.059319,152.593801 C237.579548,154.610624 236.104108,157.602208 236.005302,160.785866 L236,161.127671 L236,176 C236,176.512836 236.38604,176.935507 236.883379,176.993272 L237,177 L246,177 L246.000267,168.476885 L246.00597,168.241873 C246.138175,165.389 248.436279,163.119067 251.296195,163.004782 L251.523115,163.000267 L251.758127,163.00597 C254.611,163.138175 256.880933,165.436279 256.995465,168.274812 L257,168.5 L257,177 L266,177 C266.512836,177 266.935507,176.61396 266.993272,176.116621 L267,176 L267,161.127671 C267,157.931293 265.610069,154.899034 263.202511,152.813584 L262.940681,152.593801 L254.654855,145.854856 Z" id="Path"></path>
        </g>
    </g>
</svg>