<?xml version="1.0" encoding="UTF-8"?>
<svg viewBox="0 0 37 35" version="1.1" xmlns="http://www.w3.org/2000/svg" xmlns:xlink="http://www.w3.org/1999/xlink">
    <title>Combined Shape</title>
    <g id="Page-1" stroke="none" stroke-width="1" fill="none" fill-rule="evenodd">
        <g id="Artboard" transform="translate(-288.000000, -143.000000)" fill="#FFFFFF" fill-rule="nonzero">
            <path d="M307,144.5 C303.488189,144.5 300.626849,147.284996 300.504103,150.766866 L300.5,151 L299.5,151 C299.5,146.857864 302.857864,143.5 307,143.5 C311.060917,143.5 314.368018,146.727474 314.496146,150.757269 L314.5,151 L321,151 C323.209139,151 325,152.790861 325,155 L325,174 C325,176.209139 323.209139,178 321,178 L292,178 C289.790861,178 288,176.209139 288,174 L288,155 C288,152.790861 289.790861,151 292,151 L313.5,151 C313.5,147.410149 310.589851,144.5 307,144.5 Z M321,152 L292,152 C290.402319,152 289.096339,153.24892 289.005093,154.823727 L289,155 L289,174 C289,175.597681 290.24892,176.903661 291.823727,176.994907 L292,177 L321,177 C322.597681,177 323.903661,175.75108 323.994907,174.176273 L324,174 L324,155 C324,153.402319 322.75108,152.096339 321.176273,152.005093 L321,152 Z" id="Combined-Shape"></path>
        </g>
    </g>
</svg>