<?xml version="1.0" encoding="UTF-8"?>
<svg width="68px" height="68px" viewBox="0 0 68 68" version="1.1" xmlns="http://www.w3.org/2000/svg" xmlns:xlink="http://www.w3.org/1999/xlink">
    <title>Group 5</title>
    <g id="Page-1" stroke="none" stroke-width="1" fill="none" fill-rule="evenodd">
        <g id="Artboard" transform="translate(-267.000000, -138.000000)">
            <g id="Group-5" transform="translate(267.000000, 138.000000)">
                <rect id="Rectangle" opacity="0" x="0" y="0" width="68" height="68"></rect>
                <path d="M43.5138889,12 C48.0850027,12 51.8301908,15.3705692 51.9943863,19.6129033 L52,19.9034749 L52,50.0965251 C52,54.3771942 48.3563922,57.8428894 43.8242436,57.9948063 L43.5138889,58 L30.1188761,58 C29.7583569,58 29.4660984,57.7057871 29.4660984,57.3428571 C29.4660984,57.0202527 29.6970187,56.7519433 30.0015385,56.6963017 L30.1188761,56.6857143 L43.5138889,56.6857143 C47.3919108,56.6857143 50.5338056,53.868947 50.6884766,50.367205 L50.6944444,50.0965251 L50.6944444,19.9034749 C50.6944444,16.3680076 47.6495001,13.4628536 43.8107084,13.3198055 L43.5138889,13.3142857 L23.9305556,13.3142857 C20.0525337,13.3142857 16.9106388,16.131053 16.7559679,19.632795 L16.75,19.9034749 L16.75,34.3189913 C16.75,34.6819213 16.4577414,34.9761342 16.0972222,34.9761342 C15.7767607,34.9761342 15.5102335,34.7436697 15.4549616,34.4371136 L15.4444444,34.3189913 L15.4444444,19.9034749 C15.4444444,15.6228058 19.0880522,12.1571106 23.6202009,12.0051937 L23.9305556,12 L43.5138889,12 Z M22.625,40.9142857 C24.3554922,40.9142857 25.7714394,42.2700187 25.8819464,43.9839634 L25.8888889,44.2 L25.8888889,47.4857143 L27.1944444,47.4857143 C27.9154829,47.4857143 28.5,48.07414 28.5,48.8 C28.5,49.4740128 27.9960031,50.0295237 27.3466998,50.1054436 L27.1944444,50.1142857 L25.8888889,50.1142857 L25.8888889,53.4 C25.8888889,55.1420639 24.5421614,56.5674794 22.8396016,56.6787253 L22.625,56.6857143 L20.0138889,56.6857143 C19.6533697,56.6857143 19.3611111,56.3915014 19.3611111,56.0285714 C19.3611111,55.705967 19.5920315,55.4376576 19.8965513,55.382016 L20.0138889,55.3714286 L22.625,55.3714286 C23.6429366,55.3714286 24.4794747,54.5895757 24.5743686,53.5898617 L24.5833333,53.4 L24.5833333,44.2 C24.5833333,43.1752565 23.8066739,42.3331246 22.8136006,42.2375961 L22.625,42.2285714 L20.0138889,42.2285714 C19.6533697,42.2285714 19.3611111,41.9343585 19.3611111,41.5714286 C19.3611111,41.2488241 19.5920315,40.9805147 19.8965513,40.9248732 L20.0138889,40.9142857 L22.625,40.9142857 Z M13.4861111,40.9142857 C13.8466303,40.9142857 14.1388889,41.2084986 14.1388889,41.5714286 C14.1388889,41.894033 13.9079685,42.1623424 13.6034487,42.217984 L13.4861111,42.2285714 L10.875,42.2285714 C9.8570634,42.2285714 9.02052534,43.0104243 8.92563137,44.0101383 L8.91666667,44.2 L8.91666667,53.4 C8.91666667,54.4247435 9.69332611,55.2668754 10.6863994,55.3624039 L10.875,55.3714286 L13.4861111,55.3714286 C13.8466303,55.3714286 14.1388889,55.6656415 14.1388889,56.0285714 C14.1388889,56.3511759 13.9079685,56.6194853 13.6034487,56.6751268 L13.4861111,56.6857143 L10.875,56.6857143 C9.14450778,56.6857143 7.72856062,55.3299813 7.61805364,53.6160366 L7.61111111,53.4 L7.61111111,50.1142857 L6.30555556,50.1142857 C5.58451713,50.1142857 5,49.52586 5,48.8 C5,48.1259872 5.50399691,47.5704763 6.1533002,47.4945564 L6.30555556,47.4857143 L7.61111111,47.4857143 L7.61111111,44.2 C7.61111111,42.4579361 8.95783858,41.0325206 10.6603984,40.9212747 L10.875,40.9142857 L13.4861111,40.9142857 Z" id="Combined-Shape" fill="#FFFFFF" fill-rule="nonzero"></path>
            </g>
        </g>
    </g>
</svg>