<?xml version="1.0" encoding="UTF-8"?>
<svg viewBox="0 0 40 36" version="1.1" xmlns="http://www.w3.org/2000/svg" xmlns:xlink="http://www.w3.org/1999/xlink">
    <title>Combined Shape</title>
    <g id="Page-1" stroke="none" stroke-width="1" fill="none" fill-rule="evenodd">
        <g id="mobile-slide-closed" transform="translate(-360.000000, -996.000000)" fill="#FFFFFF" fill-rule="nonzero">
            <g id="Group-6" transform="translate(320.000000, 957.000000)">
                <path d="M60,39.7586207 C56.6152256,39.7586207 53.8599528,42.4507212 53.7590665,45.8091994 L53.7562044,46 L53,46 C53,42.1337198 56.1342917,39 60,39 C63.7978889,39 66.8897997,42.0247293 66.9971189,45.797201 L67,46 L77.037037,46 C78.6734363,46 80,47.3224182 80,48.9537037 L80,72.0462963 C80,73.6775818 78.6734363,75 77.037037,75 L42.962963,75 C41.3265637,75 40,73.6775818 40,72.0462963 L40,48.9537037 C40,47.3224182 41.3265637,46 42.962963,46 L66.2437956,46 C66.2437956,42.5532683 63.448638,39.7586207 60,39.7586207 Z M77.037037,46.7384259 L42.962963,46.7384259 C41.7794956,46.7384259 40.8121031,47.6606608 40.7445131,48.8235393 L40.7407407,48.9537037 L40.7407407,72.0462963 C40.7407407,73.2260653 41.6658666,74.1904348 42.8323905,74.2578135 L42.962963,74.2615741 L77.037037,74.2615741 C78.2205044,74.2615741 79.1878969,73.3393392 79.2554869,72.1764607 L79.2592593,72.0462963 L79.2592593,48.9537037 C79.2592593,47.7739347 78.3341334,46.8095652 77.1676095,46.7421865 L77.037037,46.7384259 Z" id="Combined-Shape"></path>
            </g>
        </g>
    </g>
</svg>