<?xml version="1.0" encoding="UTF-8"?>
<svg viewBox="0 0 52 51" version="1.1" xmlns="http://www.w3.org/2000/svg" xmlns:xlink="http://www.w3.org/1999/xlink">
    <title>Group 5</title>
    <g id="Page-1" stroke="none" stroke-width="1" fill="none" fill-rule="evenodd">
        <g id="Artboard" transform="translate(-135.000000, -141.000000)">
            <g id="Group-5" transform="translate(131.000000, 141.000000)">
                <rect id="Rectangle" opacity="0" x="0" y="0" width="52" height="51"></rect>
                <path d="M37.5,8 C41.0012787,8 43.8699334,10.5645635 43.9957001,13.7924264 L44,14.0135135 L44,36.9864865 C44,40.2435173 41.2091515,42.8804593 37.7377185,42.9960483 L37.5,43 L27.2399902,43 C26.9638479,43 26.7399902,42.7761424 26.7399902,42.5 C26.7399902,42.2545401 26.9168654,42.0503916 27.1501146,42.0080557 L27.2399902,42 L37.5,42 C40.4703997,42 42.8769575,39.8568075 42.9954289,37.1924386 L43,36.9864865 L43,14.0135135 C43,11.323484 40.6677022,9.11304076 37.7273511,9.00419986 L37.5,9 L22.5,9 C19.5296003,9 17.1230425,11.1431925 17.0045711,13.8075614 L17,14.0135135 L17,24.9818412 C17,25.2579836 16.7761424,25.4818412 16.5,25.4818412 C16.2545401,25.4818412 16.0503916,25.3049661 16.0080557,25.0717168 L16,24.9818412 L16,14.0135135 C16,10.7564827 18.7908485,8.11954071 22.2622815,8.00395169 L22.5,8 L37.5,8 Z M21.5,30 C22.8254834,30 23.9100387,31.0315359 23.9946823,32.3356243 L24,32.5 L24,35 L25,35 C25.5522847,35 26,35.4477153 26,36 C26,36.5128358 25.6139598,36.9355072 25.1166211,36.9932723 L25,37 L24,37 L24,39.5 C24,40.8254834 22.9684641,41.9100387 21.6643757,41.9946823 L21.5,42 L19.5,42 C19.2238576,42 19,41.7761424 19,41.5 C19,41.2545401 19.1768752,41.0503916 19.4101244,41.0080557 L19.5,41 L21.5,41 C22.2796961,41 22.9204487,40.4051119 22.9931334,39.64446 L23,39.5 L23,32.5 C23,31.7203039 22.4051119,31.0795513 21.64446,31.0068666 L21.5,31 L19.5,31 C19.2238576,31 19,30.7761424 19,30.5 C19,30.2545401 19.1768752,30.0503916 19.4101244,30.0080557 L19.5,30 L21.5,30 Z M14.5,30 C14.7761424,30 15,30.2238576 15,30.5 C15,30.7454599 14.8231248,30.9496084 14.5898756,30.9919443 L14.5,31 L12.5,31 C11.7203039,31 11.0795513,31.5948881 11.0068666,32.35554 L11,32.5 L11,39.5 C11,40.2796961 11.5948881,40.9204487 12.35554,40.9931334 L12.5,41 L14.5,41 C14.7761424,41 15,41.2238576 15,41.5 C15,41.7454599 14.8231248,41.9496084 14.5898756,41.9919443 L14.5,42 L12.5,42 C11.1745166,42 10.0899613,40.9684641 10.0053177,39.6643757 L10,39.5 L9.999,37 L9,37 C8.44771525,37 8,36.5522847 8,36 C8,35.4871642 8.38604019,35.0644928 8.88337887,35.0067277 L9,35 L10,35 L10,32.5 C10,31.1745166 11.0315359,30.0899613 12.3356243,30.0053177 L12.5,30 L14.5,30 Z" id="Combined-Shape" fill="#FFFFFF" fill-rule="nonzero"></path>
            </g>
        </g>
    </g>
</svg>