<?xml version="1.0" encoding="UTF-8"?>
<svg viewBox="0 0 52 52" version="1.1" xmlns="http://www.w3.org/2000/svg" xmlns:xlink="http://www.w3.org/1999/xlink">
    <title>Group 4</title>
    <g id="Page-1" stroke="none" stroke-width="1" fill="none" fill-rule="evenodd">
        <g id="Artboard" transform="translate(-219.000000, -138.000000)">
            <g id="Group-4" transform="translate(219.000000, 138.000000)">
                <rect id="Rectangle" opacity="0" x="0" y="0" width="52" height="52"></rect>
                <path d="M26,9 C35.3888407,9 43,16.6111593 43,26 C43,35.3888407 35.3888407,43 26,43 C16.6111593,43 9,35.3888407 9,26 C9,16.6111593 16.6111593,9 26,9 Z M26,10 C17.163444,10 10,17.163444 10,26 C10,34.836556 17.163444,42 26,42 C34.836556,42 42,34.836556 42,26 C42,17.163444 34.836556,10 26,10 Z M35.7142857,26.7142857 C35.9904281,26.7142857 36.2142857,26.9381433 36.2142857,27.2142857 C36.2142857,32.8554799 31.6411942,37.4285714 26,37.4285714 C20.3588058,37.4285714 15.7857143,32.8554799 15.7857143,27.2142857 C15.7857143,26.9381433 16.0095719,26.7142857 16.2857143,26.7142857 C16.5618567,26.7142857 16.7857143,26.9381433 16.7857143,27.2142857 C16.7857143,32.3031952 20.9110905,36.4285714 26,36.4285714 C31.0889095,36.4285714 35.2142857,32.3031952 35.2142857,27.2142857 C35.2142857,26.9381433 35.4381433,26.7142857 35.7142857,26.7142857 Z" id="Combined-Shape" fill="#FFFFFF" fill-rule="nonzero"></path>
            </g>
        </g>
    </g>
</svg>