<?xml version="1.0" encoding="UTF-8"?>
<svg viewBox="0 0 52 52" version="1.1" xmlns="http://www.w3.org/2000/svg" xmlns:xlink="http://www.w3.org/1999/xlink">
    <title>Group 6</title>
    <g id="Page-1" stroke="none" stroke-width="1" fill="none" fill-rule="evenodd">
        <g id="Artboard" transform="translate(-144.000000, -141.000000)">
            <g id="Group-6" transform="translate(144.000000, 141.000000)">
                <rect id="Rectangle" opacity="0" x="0" y="0" width="52" height="52"></rect>
                <path d="M32.5,11 C32.5,10.2203039 31.9051119,9.57955132 31.14446,9.50686658 L31,9.5 L21,9.5 C20.2203039,9.5 19.5795513,10.0948881 19.5068666,10.85554 L19.5,11 L19.5,16 L18.5,16 L18.5,11 C18.5,9.6745166 19.5315359,8.58996133 20.8356243,8.50531768 L21,8.5 L31,8.5 C32.3254834,8.5 33.4100387,9.53153594 33.4946823,10.8356243 L33.5,11 L33.5,16 L37,16 C39.209139,16 41,17.790861 41,20 L41,38 C41,40.209139 39.209139,42 37,42 L15,42 C12.790861,42 11,40.209139 11,38 L11,20 C11,17.790861 12.790861,16 15,16 L32.5,16 L32.5,11 Z M37,17 L15,17 C13.4023191,17 12.0963391,18.24892 12.0050927,19.8237272 L12,20 L12,38 C12,39.5976809 13.24892,40.9036609 14.8237272,40.9949073 L15,41 L37,41 C38.5976809,41 39.9036609,39.75108 39.9949073,38.1762728 L40,38 L40,20 C40,18.4023191 38.75108,17.0963391 37.1762728,17.0050927 L37,17 Z" id="Combined-Shape" fill="#FFFFFF" fill-rule="nonzero"></path>
            </g>
        </g>
    </g>
</svg>