<?xml version="1.0" encoding="UTF-8"?>
<svg viewBox="0 0 149 20" version="1.1" xmlns="http://www.w3.org/2000/svg" xmlns:xlink="http://www.w3.org/1999/xlink">
    <title>Group 10</title>
    <g id="Page-1" stroke="none" stroke-width="1" fill="none" fill-rule="evenodd" opacity="0.563732329">
        <g id="spotify-slide" transform="translate(-1501.000000, -977.000000)" fill="#FFFFFF">
            <g id="Group-10" transform="translate(1501.000000, 977.000000)">
                <g id="Group-9" transform="translate(60.000000, 0.000000)" fill-rule="nonzero">
                    <path d="M45,0 C46.6568542,0 48,1.34314575 48,3 L48,17 C48,18.6568542 46.6568542,20 45,20 L3,20 C1.34314575,20 0,18.6568542 0,17 L0,3 C0,1.34314575 1.34314575,0 3,0 L45,0 Z M45,1 L3,1 C1.9456382,1 1.08183488,1.81587779 1.00548574,2.85073766 L1,3 L1,17 C1,18.0543618 1.81587779,18.9181651 2.85073766,18.9945143 L3,19 L45,19 C46.0543618,19 46.9181651,18.1841222 46.9945143,17.1492623 L47,17 L47,3 C47,1.9456382 46.1841222,1.08183488 45.1492623,1.00548574 L45,1 Z" id="Rectangle" transform="translate(24.000000, 10.000000) rotate(-180.000000) translate(-24.000000, -10.000000) "></path>
                    <g id="return" transform="translate(22.609375, 9.691406)">
                        <path d="M1.953125,1.48046875 C1.85416667,1.46223958 1.74869792,1.453125 1.63671875,1.453125 C1.34505208,1.453125 1.09830729,1.53450521 0.896484375,1.69726562 C0.694661458,1.86002604 0.55078125,2.09635417 0.46484375,2.40625 L0.46484375,5.30859375 L0,5.30859375 L0,1.08203125 L0.45703125,1.08203125 L0.46484375,1.75390625 C0.712239583,1.25390625 1.109375,1.00390625 1.65625,1.00390625 C1.78645833,1.00390625 1.88932292,1.02083333 1.96484375,1.0546875 L1.953125,1.48046875 Z" id="r"></path>
                        <path d="M4.14279514,5.38671875 C3.78342014,5.38671875 3.45855035,5.29817708 3.16818576,5.12109375 C2.87782118,4.94401042 2.65190972,4.69726562 2.49045139,4.38085938 C2.32899306,4.06445312 2.24826389,3.70963542 2.24826389,3.31640625 L2.24826389,3.1484375 C2.24826389,2.7421875 2.32703993,2.37630208 2.48459201,2.05078125 C2.6421441,1.72526042 2.86154514,1.46940104 3.14279514,1.28320312 C3.42404514,1.09700521 3.72873264,1.00390625 4.05685764,1.00390625 C4.56987847,1.00390625 4.97677951,1.17903646 5.27756076,1.52929688 C5.57834201,1.87955729 5.72873264,2.35807292 5.72873264,2.96484375 L5.72873264,3.2265625 L2.71310764,3.2265625 L2.71310764,3.31640625 C2.71310764,3.79557292 2.85047743,4.19466146 3.12521701,4.51367188 C3.3999566,4.83268229 3.74565972,4.9921875 4.16232639,4.9921875 C4.41232639,4.9921875 4.63302951,4.94661458 4.82443576,4.85546875 C5.01584201,4.76432292 5.18967014,4.61848958 5.34592014,4.41796875 L5.63888889,4.640625 C5.29513889,5.13802083 4.79644097,5.38671875 4.14279514,5.38671875 Z M4.05685764,1.40234375 C3.70529514,1.40234375 3.40907118,1.53125 3.16818576,1.7890625 C2.92730035,2.046875 2.78081597,2.39322917 2.72873264,2.828125 L5.26388889,2.828125 L5.26388889,2.77734375 C5.25086806,2.37109375 5.13498264,2.04036458 4.91623264,1.78515625 C4.69748264,1.52994792 4.41102431,1.40234375 4.05685764,1.40234375 Z" id="e"></path>
                        <path d="M7.25434028,0 L7.25434028,1.08203125 L8.12934028,1.08203125 L8.12934028,1.46484375 L7.25434028,1.46484375 L7.25434028,4.28125 C7.25434028,4.515625 7.29665799,4.69010417 7.3812934,4.8046875 C7.46592882,4.91927083 7.60720486,4.9765625 7.80512153,4.9765625 C7.88324653,4.9765625 8.00954861,4.96354167 8.18402778,4.9375 L8.20355903,5.3203125 C8.08116319,5.36458333 7.91449653,5.38671875 7.70355903,5.38671875 C7.38324653,5.38671875 7.15017361,5.29361979 7.00434028,5.10742188 C6.85850694,4.92122396 6.78559028,4.64713542 6.78559028,4.28515625 L6.78559028,1.46484375 L6.00824653,1.46484375 L6.00824653,1.08203125 L6.78559028,1.08203125 L6.78559028,0 L7.25434028,0 Z" id="t"></path>
                        <path d="M11.7057292,4.7734375 C11.4244792,5.18229167 10.9752604,5.38671875 10.3580729,5.38671875 C9.90755208,5.38671875 9.56510417,5.25585938 9.33072917,4.99414062 C9.09635417,4.73242188 8.9765625,4.34505208 8.97135417,3.83203125 L8.97135417,1.08203125 L9.43619792,1.08203125 L9.43619792,3.7734375 C9.43619792,4.578125 9.76171875,4.98046875 10.4127604,4.98046875 C11.0898438,4.98046875 11.5182292,4.70052083 11.6979167,4.140625 L11.6979167,1.08203125 L12.1666667,1.08203125 L12.1666667,5.30859375 L11.7135417,5.30859375 L11.7057292,4.7734375 Z" id="u"></path>
                        <path d="M15.2235243,1.48046875 C15.124566,1.46223958 15.0190972,1.453125 14.9071181,1.453125 C14.6154514,1.453125 14.3687066,1.53450521 14.1668837,1.69726562 C13.9650608,1.86002604 13.8211806,2.09635417 13.7352431,2.40625 L13.7352431,5.30859375 L13.2703993,5.30859375 L13.2703993,1.08203125 L13.7274306,1.08203125 L13.7352431,1.75390625 C13.9826389,1.25390625 14.3797743,1.00390625 14.9266493,1.00390625 C15.0568576,1.00390625 15.1597222,1.02083333 15.2352431,1.0546875 L15.2235243,1.48046875 Z" id="r"></path>
                        <path d="M16.2960069,1.08203125 L16.3116319,1.8046875 C16.4704861,1.54427083 16.6684028,1.34570312 16.9053819,1.20898438 C17.1423611,1.07226562 17.4040799,1.00390625 17.6905382,1.00390625 C18.1436632,1.00390625 18.4809028,1.13151042 18.7022569,1.38671875 C18.9236111,1.64192708 19.0355903,2.02473958 19.0381944,2.53515625 L19.0381944,5.30859375 L18.5733507,5.30859375 L18.5733507,2.53125 C18.5707465,2.15364583 18.4906684,1.87239583 18.3331163,1.6875 C18.1755642,1.50260417 17.9236111,1.41015625 17.5772569,1.41015625 C17.2881944,1.41015625 17.0323351,1.50065104 16.8096788,1.68164062 C16.5870226,1.86263021 16.422309,2.10677083 16.3155382,2.4140625 L16.3155382,5.30859375 L15.8506944,5.30859375 L15.8506944,1.08203125 L16.2960069,1.08203125 Z" id="n"></path>
                    </g>
                </g>
                <g id="Group-6" transform="translate(0.000000, 0.000000)">
                    <g id="Group-5" transform="translate(0.000000, 0.000000)">
                        <path d="M17,0 C18.6568542,0 20,1.34314575 20,3 L20,17 C20,18.6568542 18.6568542,20 17,20 L3,20 C1.34314575,20 0,18.6568542 0,17 L0,3 C0,1.34314575 1.34314575,0 3,0 L17,0 Z M17,1 L3,1 C1.9456382,1 1.08183488,1.81587779 1.00548574,2.85073766 L1,3 L1,17 C1,18.0543618 1.81587779,18.9181651 2.85073766,18.9945143 L3,19 L17,19 C18.0543618,19 18.9181651,18.1841222 18.9945143,17.1492623 L19,17 L19,3 C19,1.9456382 18.1841222,1.08183488 17.1492623,1.00548574 L17,1 Z" id="Rectangle" fill-rule="nonzero"></path>
                        <polyline id="Path" points="10.8183766 13 7 10 10.8183766 7"></polyline>
                    </g>
                    <g id="Group-4" transform="translate(35.000000, 10.000000) rotate(-180.000000) translate(-35.000000, -10.000000) translate(25.000000, 0.000000)">
                        <path d="M17,0 C18.6568542,0 20,1.34314575 20,3 L20,17 C20,18.6568542 18.6568542,20 17,20 L3,20 C1.34314575,20 0,18.6568542 0,17 L0,3 C0,1.34314575 1.34314575,0 3,0 L17,0 Z M17,1 L3,1 C1.9456382,1 1.08183488,1.81587779 1.00548574,2.85073766 L1,3 L1,17 C1,18.0543618 1.81587779,18.9181651 2.85073766,18.9945143 L3,19 L17,19 C18.0543618,19 18.9181651,18.1841222 18.9945143,17.1492623 L19,17 L19,3 C19,1.9456382 18.1841222,1.08183488 17.1492623,1.00548574 L17,1 Z" id="Rectangle" fill-rule="nonzero"></path>
                        <polyline id="Path" points="11.8183766 13 8 10 11.8183766 7"></polyline>
                    </g>
                </g>
                <g id="Group-7" transform="translate(122.000000, 0.000000)" fill-rule="nonzero">
                    <path d="M24,0 C25.6568542,0 27,1.34314575 27,3 L27,17 C27,18.6568542 25.6568542,20 24,20 L3,20 C1.34314575,20 0,18.6568542 0,17 L0,3 C0,1.34314575 1.34314575,0 3,0 L24,0 Z M24,1 L3,1 C1.9456382,1 1.08183488,1.81587779 1.00548574,2.85073766 L1,3 L1,17 C1,18.0543618 1.81587779,18.9181651 2.85073766,18.9945143 L3,19 L24,19 C25.0543618,19 25.9181651,18.1841222 25.9945143,17.1492623 L26,17 L26,3 C26,1.9456382 25.1841222,1.08183488 24.1492623,1.00548574 L24,1 Z" id="Rectangle" transform="translate(13.500000, 10.000000) rotate(-180.000000) translate(-13.500000, -10.000000) "></path>
                    <g id="esc" transform="translate(5.351562, 10.695313)">
                        <path d="M1.89453125,4.3828125 C1.53515625,4.3828125 1.21028646,4.29427083 0.919921875,4.1171875 C0.629557292,3.94010417 0.403645833,3.69335938 0.2421875,3.37695312 C0.0807291667,3.06054688 0,2.70572917 0,2.3125 L0,2.14453125 C0,1.73828125 0.0787760417,1.37239583 0.236328125,1.046875 C0.393880208,0.721354167 0.61328125,0.465494792 0.89453125,0.279296875 C1.17578125,0.0930989583 1.48046875,0 1.80859375,0 C2.32161458,0 2.72851562,0.175130208 3.02929688,0.525390625 C3.33007812,0.875651042 3.48046875,1.35416667 3.48046875,1.9609375 L3.48046875,2.22265625 L0.46484375,2.22265625 L0.46484375,2.3125 C0.46484375,2.79166667 0.602213542,3.19075521 0.876953125,3.50976562 C1.15169271,3.82877604 1.49739583,3.98828125 1.9140625,3.98828125 C2.1640625,3.98828125 2.38476562,3.94270833 2.57617188,3.8515625 C2.76757812,3.76041667 2.94140625,3.61458333 3.09765625,3.4140625 L3.390625,3.63671875 C3.046875,4.13411458 2.54817708,4.3828125 1.89453125,4.3828125 Z M1.80859375,0.3984375 C1.45703125,0.3984375 1.16080729,0.52734375 0.919921875,0.78515625 C0.679036458,1.04296875 0.532552083,1.38932292 0.48046875,1.82421875 L3.015625,1.82421875 L3.015625,1.7734375 C3.00260417,1.3671875 2.88671875,1.03645833 2.66796875,0.78125 C2.44921875,0.526041667 2.16276042,0.3984375 1.80859375,0.3984375 Z" id="e"></path>
                        <path d="M6.81076389,3.23046875 C6.81076389,2.99869792 6.71766493,2.8125 6.53146701,2.671875 C6.3452691,2.53125 6.06467014,2.42122396 5.68967014,2.34179688 C5.31467014,2.26236979 5.02365451,2.17122396 4.81662326,2.06835938 C4.60959201,1.96549479 4.45594618,1.83984375 4.35568576,1.69140625 C4.25542535,1.54296875 4.20529514,1.36328125 4.20529514,1.15234375 C4.20529514,0.819010417 4.34461806,0.543619792 4.62326389,0.326171875 C4.90190972,0.108723958 5.25868056,0 5.69357639,0 C6.16493056,0 6.54318576,0.116536458 6.82834201,0.349609375 C7.11349826,0.582682292 7.25607639,0.88671875 7.25607639,1.26171875 L6.78732639,1.26171875 C6.78732639,1.01432292 6.68381076,0.80859375 6.47677951,0.64453125 C6.26974826,0.48046875 6.00868056,0.3984375 5.69357639,0.3984375 C5.38628472,0.3984375 5.13953993,0.466796875 4.95334201,0.603515625 C4.7671441,0.740234375 4.67404514,0.91796875 4.67404514,1.13671875 C4.67404514,1.34765625 4.7515191,1.51106771 4.90646701,1.62695312 C5.06141493,1.74283854 5.34396701,1.84895833 5.75412326,1.9453125 C6.16427951,2.04166667 6.47157118,2.14453125 6.67599826,2.25390625 C6.88042535,2.36328125 7.03211806,2.49479167 7.13107639,2.6484375 C7.23003472,2.80208333 7.27951389,2.98828125 7.27951389,3.20703125 C7.27951389,3.56380208 7.13563368,3.84895833 6.84787326,4.0625 C6.56011285,4.27604167 6.18446181,4.3828125 5.72092014,4.3828125 C5.22873264,4.3828125 4.8296441,4.26367188 4.52365451,4.02539062 C4.21766493,3.78710938 4.06467014,3.48567708 4.06467014,3.12109375 L4.53342014,3.12109375 C4.55164931,3.39453125 4.66688368,3.60742188 4.87912326,3.75976562 C5.09136285,3.91210938 5.37196181,3.98828125 5.72092014,3.98828125 C6.04644097,3.98828125 6.30946181,3.91666667 6.50998264,3.7734375 C6.71050347,3.63020833 6.81076389,3.44921875 6.81076389,3.23046875 Z" id="s"></path>
                        <path d="M9.78168403,3.98828125 C10.1072049,3.98828125 10.3799913,3.89648438 10.6000434,3.71289062 C10.8200955,3.52929688 10.9392361,3.29166667 10.9574653,3 L11.406684,3 C11.3936632,3.2578125 11.312934,3.49283854 11.1644965,3.70507812 C11.016059,3.91731771 10.8187934,4.08333333 10.5726997,4.203125 C10.3266059,4.32291667 10.062934,4.3828125 9.78168403,4.3828125 C9.22699653,4.3828125 8.7875434,4.19010417 8.46332465,3.8046875 C8.1391059,3.41927083 7.97699653,2.90104167 7.97699653,2.25 L7.97699653,2.109375 C7.97699653,1.69270833 8.04991319,1.32421875 8.19574653,1.00390625 C8.34157986,0.68359375 8.55056424,0.436197917 8.82269965,0.26171875 C9.09483507,0.0872395833 9.41319444,0 9.77777778,0 C10.2413194,0 10.6234809,0.138020833 10.9242622,0.4140625 C11.2250434,0.690104167 11.3858507,1.05338542 11.406684,1.50390625 L10.9574653,1.50390625 C10.9366319,1.17317708 10.8174913,0.90625 10.6000434,0.703125 C10.3825955,0.5 10.1085069,0.3984375 9.77777778,0.3984375 C9.35590278,0.3984375 9.02842882,0.55078125 8.7953559,0.85546875 C8.56228299,1.16015625 8.44574653,1.58723958 8.44574653,2.13671875 L8.44574653,2.2734375 C8.44574653,2.8125 8.56228299,3.23307292 8.7953559,3.53515625 C9.02842882,3.83723958 9.35720486,3.98828125 9.78168403,3.98828125 Z" id="c"></path>
                    </g>
                </g>
            </g>
        </g>
    </g>
</svg>