<?xml version="1.0" encoding="UTF-8"?>
<svg viewBox="0 0 36 36" version="1.1" xmlns="http://www.w3.org/2000/svg" xmlns:xlink="http://www.w3.org/1999/xlink">
    <title>Path</title>
    <g id="Page-1" stroke="none" stroke-width="1" fill="none" fill-rule="evenodd">
        <g id="Artboard" transform="translate(-342.000000, -143.000000)" fill="#FFFFFF">
            <path d="M377.469356,143.530644 C377.758603,143.819892 377.758603,144.288855 377.469356,144.578103 L361.23375,160.813708 L377.469356,177.049314 C377.758603,177.338562 377.758603,177.807525 377.469356,178.096773 C377.180108,178.38602 376.711145,178.38602 376.421897,178.096773 L360.185244,161.860119 L343.950686,178.096773 C343.661438,178.38602 343.192475,178.38602 342.903227,178.096773 C342.61398,177.807525 342.61398,177.338562 342.903227,177.049314 L359.137786,160.812661 L342.903227,144.578103 C342.61398,144.288855 342.61398,143.819892 342.903227,143.530644 C343.192475,143.241397 343.661438,143.241397 343.950686,143.530644 L360.186292,159.76625 L376.421897,143.530644 C376.711145,143.241397 377.180108,143.241397 377.469356,143.530644 Z" id="Path"></path>
        </g>
    </g>
</svg>