<?xml version="1.0" encoding="UTF-8"?>
<svg width="64px" height="64px" viewBox="0 0 64 64" version="1.1" xmlns="http://www.w3.org/2000/svg" xmlns:xlink="http://www.w3.org/1999/xlink">
    <title>Group 3</title>
    <g id="Page-1" stroke="none" stroke-width="1" fill="none" fill-rule="evenodd">
        <g id="Artboard" transform="translate(-34.000000, -42.000000)">
            <g id="Group-3" transform="translate(34.000000, 42.000000)">
                <rect id="Rectangle" fill="#D8D8D8" opacity="0" x="0" y="0" width="64" height="64" rx="5"></rect>
                <g id="Group-7" transform="translate(16.000000, 14.500000)" fill="#FFFFFF" fill-rule="nonzero">
                    <path d="M16.4096076,10.7919395 L16.4568111,10.8758441 L23.9000164,27.4742693 C23.9727881,27.6365509 23.9531675,27.8229029 23.8536816,27.9652294 L23.7973411,28.0324086 L16.3541358,35.4756139 C16.1805695,35.6491803 15.9111451,35.6684655 15.7162769,35.5334694 L15.647029,35.4756139 L8.2038237,28.0324086 C8.07806396,27.9066489 8.03008172,27.7255142 8.07240394,27.5571007 L8.10114841,27.4742693 L15.5443537,10.8758441 C15.7073963,10.5122575 16.1964149,10.4842893 16.4096076,10.7919395 Z M16.5763626,13.58843 L16.0080846,23.500032 C16.5566474,23.5043758 17,23.9504126 17,24.5 C17,25.0522847 16.5522847,25.5 16,25.5 C15.4477153,25.5 15,25.0522847 15,24.5 C15,23.9477153 15.4477153,23.5 16,23.5 L15.9903626,23.50043 L15.3993626,13.64143 L9.15295751,27.5687431 L15.9998725,34.415658 L22.8467874,27.5687431 L16.5763626,13.58843 Z M16,0 C23.4644624,0 29.5,6.49980975 29.5,14.5 L29.496732,14.5409328 C30.9171963,14.777624 32,16.0123608 32,17.5 C32,19.1568542 30.6568542,20.5 29,20.5 C27.3431458,20.5 26,19.1568542 26,17.5 C26,16.0120148 27.0833076,14.7770496 28.5042593,14.5407678 C28.5005865,14.5281323 28.5,14.5141346 28.5,14.5 C28.5,7.03621726 22.8949411,1 16,1 C9.10505888,1 3.5,7.03621726 3.5,14.5 L3.49673205,14.5409328 C4.91719625,14.777624 6,16.0123608 6,17.5 C6,19.1568542 4.65685425,20.5 3,20.5 C1.34314575,20.5 0,19.1568542 0,17.5 C0,16.0120148 1.08330755,14.7770496 2.50425926,14.5407678 C2.50058651,14.5281323 2.5,14.5141346 2.5,14.5 C2.5,6.49980975 8.53553763,0 16,0 Z M3,15.5 C1.8954305,15.5 1,16.3954305 1,17.5 C1,18.6045695 1.8954305,19.5 3,19.5 C4.1045695,19.5 5,18.6045695 5,17.5 C5,16.3954305 4.1045695,15.5 3,15.5 Z M29,15.5 C27.8954305,15.5 27,16.3954305 27,17.5 C27,18.6045695 27.8954305,19.5 29,19.5 C30.1045695,19.5 31,18.6045695 31,17.5 C31,16.3954305 30.1045695,15.5 29,15.5 Z" id="Combined-Shape"></path>
                </g>
            </g>
        </g>
    </g>
</svg>