<?xml version="1.0" encoding="UTF-8"?>
<svg width="64px" height="64px" viewBox="0 0 64 64" version="1.1" xmlns="http://www.w3.org/2000/svg" xmlns:xlink="http://www.w3.org/1999/xlink">
    <title>Group</title>
    <g id="Page-1" stroke="none" stroke-width="1" fill="none" fill-rule="evenodd">
        <g id="Artboard" transform="translate(-213.000000, -42.000000)">
            <g id="Group" transform="translate(213.000000, 42.000000)">
                <rect id="Rectangle" fill="#D8D8D8" opacity="0" x="0" y="0" width="64" height="64" rx="5"></rect>
                <g id="Group-8" transform="translate(15.000000, 16.000000)" fill="#FFFFFF" fill-rule="nonzero">
                    <path d="M17,0 C26.3888407,0 34,7.61115925 34,17 C34,26.3888407 26.3888407,34 17,34 C7.61115925,34 0,26.3888407 0,17 C0,7.61115925 7.61115925,0 17,0 Z M17,1 C8.163444,1 1,8.163444 1,17 C1,25.836556 8.163444,33 17,33 C25.836556,33 33,25.836556 33,17 C33,8.163444 25.836556,1 17,1 Z" id="Oval"></path>
                    <path d="M7.78571429,18.2142857 C7.78571429,23.3031952 11.9110905,27.4285714 17,27.4285714 C21.9996304,27.4285714 26.0692391,23.4466755 26.2104936,18.4812163 L26.2142857,18.2142857 L27.2142857,18.2142857 C27.2142857,23.8554799 22.6411942,28.4285714 17,28.4285714 C11.4528257,28.4285714 6.93844736,24.006646 6.78950897,18.4954391 L6.78571429,18.2142857 L7.78571429,18.2142857 Z" id="Path"></path>
                </g>
            </g>
        </g>
    </g>
</svg>