<?xml version="1.0" encoding="UTF-8"?>
<svg viewBox="0 0 28 30" version="1.1" xmlns="http://www.w3.org/2000/svg" xmlns:xlink="http://www.w3.org/1999/xlink">
    <title>Combined Shape</title>
    <g id="Page-1" stroke="none" stroke-width="1" fill="none" fill-rule="evenodd">
        <g id="iPhone-13-Pro-Max" transform="translate(-200.000000, -719.000000)" fill="#000000" stroke="#FFFFFF">
            <g id="Group-2" transform="translate(-48.000000, 666.000000)">
                <g id="Group-3" transform="translate(230.000000, 38.000000)">
                    <path d="M32,15.5 C33.2424215,15.5 34.484843,15.9194355 35.5011479,16.7583065 L35.5011479,16.7583065 L41.3205819,21.5617416 C43.9672853,23.7463643 45.5,26.9988841 45.5,30.4307371 L45.5,30.4307371 L45.5,42.2200885 C45.5,42.634302 45.3321068,43.009302 45.0606602,43.2807486 C44.7892136,43.5521952 44.4142136,43.7200885 44.0000055,43.7200885 L44.0000055,43.7200885 L36.5,43.7200055 L36.5,36.2200885 C36.5,35.0180946 36.0287152,33.9261848 35.2608913,33.1190146 C34.4891338,32.3077094 33.4177226,31.7842519 32.2241869,31.7255867 C30.9090657,31.7222849 29.7813021,32.1838202 28.9550318,32.9314411 C28.0964592,33.7082898 27.5611819,34.7957238 27.5049024,36.0083704 L27.5049024,36.0083704 L27.5002984,43.7200055 L20,43.7200885 C19.5857864,43.7200885 19.2107864,43.5521952 18.9393398,43.2807486 C18.6678932,43.009302 18.5,42.634302 18.5,42.2200885 L18.5,42.2200885 L18.5,30.4307371 C18.5,26.9988841 20.0327147,23.7463643 22.6794181,21.5617416 L22.6794181,21.5617416 L28.4988521,16.7583065 C29.515157,15.9194355 30.7575785,15.5 32,15.5 Z" id="Combined-Shape"></path>
                </g>
            </g>
        </g>
    </g>
</svg>