<?xml version="1.0" encoding="UTF-8"?>
<svg width="64px" height="64px" viewBox="0 0 64 64" version="1.1" xmlns="http://www.w3.org/2000/svg" xmlns:xlink="http://www.w3.org/1999/xlink">
    <title>Group 2</title>
    <g id="Page-1" stroke="none" stroke-width="1" fill="none" fill-rule="evenodd">
        <g id="Artboard" transform="translate(-124.000000, -42.000000)">
            <g id="Group-2" transform="translate(124.000000, 42.000000)">
                <rect id="Rectangle" fill="#D8D8D8" opacity="0" x="0" y="0" width="64" height="64" rx="5"></rect>
                <path d="M39.7428571,16.5 C42.8439897,16.5 45.3847981,18.7714705 45.4961915,21.6304348 L45.5,21.8262548 L45.5,42.1737452 C45.5,45.0585439 43.0281056,47.3941211 39.9534078,47.4964999 L39.7428571,47.5 L30.6554199,47.5 C30.4108367,47.5 30.2125628,47.3017261 30.2125628,47.0571429 C30.2125628,46.8397355 30.3692236,46.6589183 30.5758158,46.6214207 L30.6554199,46.6142857 L39.7428571,46.6142857 C42.3737826,46.6142857 44.5053052,44.7160295 44.610237,42.3561599 L44.6142857,42.1737452 L44.6142857,21.8262548 C44.6142857,19.4436573 42.5485363,17.4858361 39.9442253,17.3894342 L39.7428571,17.3857143 L26.4571429,17.3857143 C23.8262174,17.3857143 21.6946948,19.2839705 21.589763,21.6438401 L21.5857143,21.8262548 L21.5857143,32.0839165 C21.5857143,32.3284998 21.3874404,32.5267736 21.1428571,32.5267736 C20.9254498,32.5267736 20.7446326,32.3701128 20.707135,32.1635206 L20.7,32.0839165 L20.7,21.8262548 C20.7,18.9414561 23.1718944,16.6058789 26.2465922,16.5035001 L26.4571429,16.5 L39.7428571,16.5 Z M26,35.5 C27.3254834,35.5 28.4100387,36.5315359 28.4946823,37.8356243 L28.5,38 L28.5,41 L29.5,41 C29.7761424,41 30,41.2238576 30,41.5 C30,41.7454599 29.8231248,41.9496084 29.5898756,41.9919443 L29.5,42 L28.5,42 L28.5,45 C28.5,46.3254834 27.4684641,47.4100387 26.1643757,47.4946823 L26,47.5 L24,47.5 C23.7238576,47.5 23.5,47.2761424 23.5,47 C23.5,46.7545401 23.6768752,46.5503916 23.9101244,46.5080557 L24,46.5 L26,46.5 C26.7796961,46.5 27.4204487,45.9051119 27.4931334,45.14446 L27.5,45 L27.5,38 C27.5,37.2203039 26.9051119,36.5795513 26.14446,36.5068666 L26,36.5 L24,36.5 C23.7238576,36.5 23.5,36.2761424 23.5,36 C23.5,35.7545401 23.6768752,35.5503916 23.9101244,35.5080557 L24,35.5 L26,35.5 Z M21,35.5 C21.2761424,35.5 21.5,35.7238576 21.5,36 C21.5,36.2454599 21.3231248,36.4496084 21.0898756,36.4919443 L21,36.5 L19,36.5 C18.2203039,36.5 17.5795513,37.0948881 17.5068666,37.85554 L17.5,38 L17.5,45 C17.5,45.7796961 18.0948881,46.4204487 18.85554,46.4931334 L19,46.5 L21,46.5 C21.2761424,46.5 21.5,46.7238576 21.5,47 C21.5,47.2454599 21.3231248,47.4496084 21.0898756,47.4919443 L21,47.5 L19,47.5 C17.6745166,47.5 16.5899613,46.4684641 16.5053177,45.1643757 L16.5,45 L16.499,42 L15.5,42 C15.2238576,42 15,41.7761424 15,41.5 C15,41.2545401 15.1768752,41.0503916 15.4101244,41.0080557 L15.5,41 L16.5,41 L16.5,38 C16.5,36.6745166 17.5315359,35.5899613 18.8356243,35.5053177 L19,35.5 L21,35.5 Z" id="Combined-Shape" fill="#FFFFFF" fill-rule="nonzero"></path>
            </g>
        </g>
    </g>
</svg>