<?xml version="1.0" encoding="UTF-8"?>
<svg viewBox="0 0 52 52" version="1.1" xmlns="http://www.w3.org/2000/svg" xmlns:xlink="http://www.w3.org/1999/xlink">
    <title>Group 3</title>
    <g id="Page-1" stroke="none" stroke-width="1" fill="none" fill-rule="evenodd">
        <g id="Artboard" transform="translate(-40.000000, -138.000000)">
            <g id="Group-3" transform="translate(40.000000, 138.000000)">
                <rect id="Rectangle" opacity="0" x="0" y="0" width="52" height="52"></rect>
                <path d="M26.4096076,18.7919395 L26.4568111,18.8758441 L33.9000164,35.4742693 C33.9727881,35.6365509 33.9531675,35.8229029 33.8536816,35.9652294 L33.7973411,36.0324086 L26.3541358,43.4756139 C26.1805695,43.6491803 25.9111451,43.6684655 25.7162769,43.5334694 L25.647029,43.4756139 L18.2038237,36.0324086 C18.078064,35.9066489 18.0300817,35.7255142 18.0724039,35.5571007 L18.1011484,35.4742693 L25.5443537,18.8758441 C25.7073963,18.5122575 26.1964149,18.4842893 26.4096076,18.7919395 Z M26.5763626,21.58843 L26.0080846,31.500032 C26.5566474,31.5043758 27,31.9504126 27,32.5 C27,33.0522847 26.5522847,33.5 26,33.5 C25.4477153,33.5 25,33.0522847 25,32.5 C25,31.9871642 25.3860402,31.5644928 25.8833789,31.5067277 L25.99,31.5 L25.3993626,21.64143 L19.1529575,35.5687431 L25.9998725,42.415658 L32.8467874,35.5687431 L26.5763626,21.58843 Z M26,8 C33.4644624,8 39.5,14.4998098 39.5,22.5 L39.496732,22.5409328 C40.9171963,22.777624 42,24.0123608 42,25.5 C42,27.1568542 40.6568542,28.5 39,28.5 C37.3431458,28.5 36,27.1568542 36,25.5 C36,24.0120148 37.0833076,22.7770496 38.5042593,22.5407678 C38.5005865,22.5281323 38.5,22.5141346 38.5,22.5 C38.5,15.0362173 32.8949411,9 26,9 C19.1050589,9 13.5,15.0362173 13.5,22.5 L13.496732,22.5409328 C14.9171963,22.777624 16,24.0123608 16,25.5 C16,27.1568542 14.6568542,28.5 13,28.5 C11.3431458,28.5 10,27.1568542 10,25.5 C10,24.0120148 11.0833076,22.7770496 12.5042593,22.5407678 C12.5005865,22.5281323 12.5,22.5141346 12.5,22.5 C12.5,14.4998098 18.5355376,8 26,8 Z M13,23.5 C11.8954305,23.5 11,24.3954305 11,25.5 C11,26.6045695 11.8954305,27.5 13,27.5 C14.1045695,27.5 15,26.6045695 15,25.5 C15,24.3954305 14.1045695,23.5 13,23.5 Z M39,23.5 C37.8954305,23.5 37,24.3954305 37,25.5 C37,26.6045695 37.8954305,27.5 39,27.5 C40.1045695,27.5 41,26.6045695 41,25.5 C41,24.3954305 40.1045695,23.5 39,23.5 Z" id="Combined-Shape" fill="#FFFFFF" fill-rule="nonzero"></path>
            </g>
        </g>
    </g>
</svg>