<?xml version="1.0" encoding="UTF-8"?>
<svg width="33px" height="35px" viewBox="0 0 33 35" version="1.1" xmlns="http://www.w3.org/2000/svg" xmlns:xlink="http://www.w3.org/1999/xlink">
    <title>Combined Shape</title>
    <g id="Page-1" stroke="none" stroke-width="1" fill="none" fill-rule="evenodd">
        <g id="Artboard" transform="translate(-354.000000, -208.000000)" stroke="#FFFFFF">
            <path d="M370.5,209.168896 C371.731485,209.168896 372.96297,209.581035 373.97446,210.405314 L373.97446,210.405314 L382.264779,217.161225 C384.94473,219.345159 386.5,222.618864 386.5,226.075987 L386.5,226.075987 L386.5,241 C386.5,241.414214 386.332107,241.789214 386.06066,242.06066 C385.789214,242.332107 385.414214,242.5 385.000005,242.5 L385.000005,242.5 L375.714015,242.499901 L375.714286,233.751289 C375.714286,232.3546 375.165134,231.086181 374.271006,230.150126 C373.372676,229.209672 372.126057,228.604883 370.738297,228.542361 C369.22329,228.539218 367.915311,229.077948 366.957959,229.951409 C365.967995,230.854624 365.350927,232.117339 365.290572,233.524367 L365.290572,233.524367 L365.285294,242.499901 L356,242.5 C355.585786,242.5 355.210786,242.332107 354.93934,242.06066 C354.667893,241.789214 354.5,241.414214 354.5,241 L354.5,241 L354.5,226.075987 C354.5,222.618864 356.05527,219.345159 358.735221,217.161225 L358.735221,217.161225 L367.02554,210.405314 C368.03703,209.581035 369.268515,209.168896 370.5,209.168896 Z" id="Combined-Shape"></path>
        </g>
    </g>
</svg>