<?xml version="1.0" encoding="UTF-8"?>
<svg width="367px" height="363px" viewBox="0 0 367 363" version="1.1" xmlns="http://www.w3.org/2000/svg" xmlns:xlink="http://www.w3.org/1999/xlink">
    <title>Group 8</title>
    <defs>
        <filter x="-5.8%" y="-5.8%" width="111.6%" height="111.6%" filterUnits="objectBoundingBox" id="filter-1">
            <feOffset dx="0" dy="2" in="SourceAlpha" result="shadowOffsetOuter1"></feOffset>
            <feGaussianBlur stdDeviation="2" in="shadowOffsetOuter1" result="shadowBlurOuter1"></feGaussianBlur>
            <feColorMatrix values="0 0 0 0 0   0 0 0 0 0   0 0 0 0 0  0 0 0 0.5 0" type="matrix" in="shadowBlurOuter1" result="shadowMatrixOuter1"></feColorMatrix>
            <feMerge>
                <feMergeNode in="shadowMatrixOuter1"></feMergeNode>
                <feMergeNode in="SourceGraphic"></feMergeNode>
            </feMerge>
        </filter>
    </defs>
    <g id="Page-1" stroke="none" stroke-width="1" fill="none" fill-rule="evenodd">
        <g id="Group-8">
            <rect id="Rectangle" fill-opacity="0" fill="#D8D8D8" x="0" y="0" width="367" height="363"></rect>
            <g id="Group" filter="url(#filter-1)" transform="translate(80.000000, 78.000000)" fill="#28FD6C" fill-rule="nonzero">
                <path d="M103.499382,0 C46.3394652,0 0,46.3393359 0,103.500618 C0,160.664372 46.3394652,207 103.499382,207 C160.665479,207 207,160.664372 207,103.500618 C207,46.3430438 160.665479,0.00494378534 103.498146,0.00494378534 L103.499382,0 Z M150.963531,149.277598 C149.109656,152.318026 145.130004,153.282064 142.089649,151.415785 C117.789052,136.57207 87.1976392,133.210296 51.170664,141.441699 C47.6989737,142.232704 44.2384066,140.057439 43.4474198,136.584429 C42.6527253,133.11142 44.8192875,129.650771 48.2996292,128.859765 C87.7253757,119.852188 121.543768,123.730588 148.825395,140.403504 C151.865751,142.269783 152.829766,146.23717 150.963531,149.277598 L150.963531,149.277598 Z M163.631679,121.09555 C161.295796,124.892377 156.32741,126.091245 152.533146,123.755307 C124.712658,106.654753 82.3046445,101.702316 49.3983593,111.691234 C45.1307385,112.980326 40.6233499,110.575175 39.328109,106.314868 C38.0427556,102.047145 40.4490856,97.5483004 44.7092909,96.2505568 C82.297229,84.845244 129.026008,90.3699241 160.974458,110.002932 C164.768722,112.33887 165.967562,117.307374 163.631679,121.096786 L163.631679,121.09555 Z M164.719286,91.7492402 C131.361891,71.9357845 76.3265149,70.1139996 44.4781744,79.7803359 C39.3639506,81.3314486 33.9555786,78.4442779 32.405739,73.329932 C30.8558993,68.2131142 33.7405291,62.8083208 38.8584607,61.2535004 C75.418116,50.1547023 136.194326,52.2990692 174.599205,75.0985712 C179.209174,77.8287767 180.716993,83.7699707 177.985617,88.3639832 C175.2666,92.9641755 169.309481,94.4806816 164.724229,91.7492402 L164.719286,91.7492402 Z" id="Shape"></path>
            </g>
        </g>
    </g>
</svg>