<svg preserveAspectRatio="xMinYMin meet" viewBox="0 0 358 1767" version="1.1" xmlns="http://www.w3.org/2000/svg" xmlns:xlink="http://www.w3.org/1999/xlink">
    <title>STEREO</title>
    <g id="Page-1" stroke="none" stroke-width="1" fill="none" fill-rule="evenodd" opacity="0.41141183">
        <path d="M-560.268293,1061.5 C-520.912892,1061.5 -489.945993,1052.87812 -467.367596,1035.63436 C-444.789199,1018.3906 -433.5,994.660651 -433.5,964.444519 C-433.5,926.634804 -452.001742,896.972371 -489.005226,875.457219 C-504.214286,866.598039 -523.656794,858.332108 -547.332753,850.659425 C-571.008711,842.986742 -587.550523,835.551359 -596.958188,828.353275 C-606.365854,821.155192 -611.069686,813.12656 -611.069686,804.26738 C-611.069686,794.142602 -606.797038,785.797571 -598.251742,779.232286 C-589.706446,772.667001 -578.06446,769.384358 -563.325784,769.384358 C-548.743902,769.384358 -537.180314,773.26025 -528.635017,781.012032 C-520.089721,788.763815 -515.817073,799.67959 -515.817073,813.759358 L-515.817073,813.759358 L-433.5,813.759358 C-433.5,792.718806 -438.909408,774.011698 -449.728223,757.638035 C-460.547038,741.264372 -475.716899,728.64795 -495.237805,719.78877 C-514.758711,710.92959 -536.827526,706.5 -561.444251,706.5 C-586.688153,706.5 -609.423345,710.573641 -629.649826,718.720922 C-649.876307,726.868204 -665.516551,738.258578 -676.570557,752.892045 C-687.624564,767.525512 -693.151568,784.413324 -693.151568,803.555481 C-693.151568,841.997995 -670.965157,872.214127 -626.592334,894.203877 C-612.95122,901.006462 -595.390244,908.046346 -573.909408,915.323529 C-552.428571,922.600713 -537.415505,929.640597 -528.870209,936.443182 C-520.324913,943.245766 -516.052265,952.737745 -516.052265,964.919118 C-516.052265,975.676693 -520.011324,984.021725 -527.929443,989.954211 C-535.847561,995.886698 -546.627178,998.852941 -560.268293,998.852941 C-581.592334,998.852941 -596.997387,994.462901 -606.483449,985.682821 C-615.969512,976.902741 -620.712544,963.258021 -620.712544,944.748663 L-620.712544,944.748663 L-703.5,944.748663 C-703.5,967.529412 -697.816202,987.660316 -686.448606,1005.14138 C-675.08101,1022.62244 -658.147213,1036.38581 -635.647213,1046.43148 C-613.147213,1056.47716 -588.020906,1061.5 -560.268293,1061.5 Z M-224.555875,1054.5 L-224.555875,774.527473 L-121.5,774.527473 L-121.5,710.5 L-408.5,710.5 L-408.5,774.527473 L-307.330731,774.527473 L-307.330731,1054.5 L-224.555875,1054.5 Z M151.028358,1054.5 L151.028358,990.708791 L-2.72686567,990.708791 L-2.72686567,908.725275 L127.446269,908.725275 L127.446269,847.06044 L-2.72686567,847.06044 L-2.72686567,774.527473 L151.5,774.527473 L151.5,710.5 L-85.5,710.5 L-85.5,1054.5 L151.028358,1054.5 Z M267.316865,1054.5 L267.316865,933.06044 L312.146508,933.06044 L372.784497,1054.5 L461.5,1054.5 L461.5,1050.95604 L389.772572,912.269231 C410.378478,902.503663 425.518313,889.745421 435.192078,873.994505 C444.865843,858.24359 449.702726,838.397436 449.702726,814.456044 C449.702726,781.379121 438.220045,755.783883 415.254685,737.67033 C392.289324,719.556777 360.436684,710.5 319.696763,710.5 L319.696763,710.5 L184.5,710.5 L184.5,1054.5 L267.316865,1054.5 Z M319.48227,868 L267,868 L267,774 L319.48227,774 C335.085106,774 346.905437,778.190833 354.943262,786.5725 C362.981087,794.954167 367,806.508333 367,821.235 C367,835.961667 363.020489,847.4375 355.061466,855.6625 C347.102443,863.8875 335.242711,868 319.48227,868 L319.48227,868 Z M737.028358,1054.5 L737.028358,990.708791 L583.273134,990.708791 L583.273134,908.725275 L713.446269,908.725275 L713.446269,847.06044 L583.273134,847.06044 L583.273134,774.527473 L737.5,774.527473 L737.5,710.5 L500.5,710.5 L500.5,1054.5 L737.028358,1054.5 Z M911.970958,1060.5 C941.17033,1060.5 967.190738,1053.49967 990.032182,1039.499 C1012.87363,1025.49833 1030.49529,1005.52562 1042.89717,979.580882 C1055.29906,953.636141 1061.5,923.815508 1061.5,890.118984 L1061.5,890.118984 L1061.5,874.21992 C1061.34301,840.997995 1054.94584,811.533311 1042.30848,785.825869 C1029.67111,760.118427 1011.97096,740.303922 989.208006,726.382353 C966.445055,712.460784 940.542386,705.5 911.5,705.5 C882.143642,705.5 855.966248,712.539884 832.967818,726.619652 C809.969388,740.699421 792.308477,760.672126 779.985086,786.537767 C767.661695,812.403409 761.5,842.263592 761.5,876.118316 L761.5,876.118316 L761.5,895.576872 C762.127943,928.165998 768.760597,957.037433 781.397959,982.191176 C794.035322,1007.34492 811.656986,1026.68483 834.262951,1040.2109 C856.868917,1053.73697 882.771586,1060.5 911.970958,1060.5 Z M911.471429,993 C889.471429,993 872.892857,984.013728 861.735714,966.041183 C850.578571,948.068638 845,922.360084 845,888.915523 L845,888.915523 L845.235714,863.832101 C847.592857,801.944034 869.514286,771 911,771 C932.214286,771 948.517857,779.790919 959.910714,797.372756 C971.303571,814.954593 977,840.702218 977,874.615628 L977,874.615628 L977,890.32207 C976.842857,923.454065 971.107143,948.850053 959.792857,966.510032 C948.478571,984.170011 932.371429,993 911.471429,993 Z" id="STEREO" stroke="#FFFFFF" fill-rule="nonzero" transform="translate(179.000000, 883.500000) rotate(-270.000000) translate(-179.000000, -883.500000) "></path>
    </g>
</svg>